<svg xmlns="http://www.w3.org/2000/svg" viewBox="0 0 128 128">
 <defs><linearGradient id="g" x1="0" y1="0" x2="1" y2="1"><stop stop-color="#6D5AF7"/><stop offset="1" stop-color="#A855F7"/></linearGradient></defs>
 <rect width="128" height="128" rx="26" fill="url(#g)"/>
 <path d="M87 43c-6-8-15-12-26-12-16 0-28 9-28 22 0 14 12 18 27 22 10 3 16 5 16 11 0 5-5 8-13 8-10 0-18-4-25-12L27 94c9 10 21 15 36 15 18 0 31-9 31-24 0-14-11-19-29-24-9-2-15-4-15-9 0-4 4-7 11-7 7 0 13 3 18 9z" fill="#fff"/>
</svg>
